# xmcd CD database file
#
# Track frame offsets:
#	150
#	3026
#	24649
#	26172
#	40165
#	41981
#	61023
#	64642
#	80185
#	83890
#	95805
#	96991
#	113834
#	116610
#	131361
#
# Disc length: 1836 seconds
#
# Revision: 0
# Processed by: cddbd v1.5.2PL0 Copyright (c) Steve Scherf et al.
# Submitted via: CDex 1.51
#
DISCID=c3072a0f
DTITLE=Guerilla Marketing - Guerilla Marketing
DYEAR=2007
DGENRE=Salsa
TTITLE0=Limradio (Intro)
TTITLE1=Sio ´n mama
TTITLE2=Limradio (Moderator) I
TTITLE3=Bosco
TTITLE4=Limradio (Moderator) II
TTITLE5=Less is more
TTITLE6=Limradio (Quisshow)
TTITLE7=Kien te mando
TTITLE8=Jobdurchsage (Moderator)
TTITLE9=Diogene
TTITLE10=Limradio (Moderator) III
TTITLE11=Dale Mente
TTITLE12=Limradio (Moderator) IV
TTITLE13=Tod oder Leben
TTITLE14=Limradio (Outro)
EXTD=YEAR: 2007
EXTT0=
EXTT1=
EXTT2=
EXTT3=
EXTT4=
EXTT5=
EXTT6=
EXTT7=
EXTT8=
EXTT9=
EXTT10=
EXTT11=
EXTT12=
EXTT13=
EXTT14=
PLAYORDER=
